<svg width="25" height="25" viewBox="0 0 25 25" fill="none" xmlns="http://www.w3.org/2000/svg">
<path d="M20.7802 10.2847L17.8914 10.3665C15.5223 10.4336 13.5385 8.55899 13.4714 6.18994L13.3896 3.30109C13.3741 2.75131 12.9115 2.31423 12.3617 2.3298L8.12343 2.44979C5.04467 2.53695 2.61226 4.60662 2.7133 8.17519L2.96404 17.0316C3.06507 20.6002 5.61067 22.5289 8.68944 22.4418L16.5463 22.2193C19.6251 22.1322 22.0575 20.0625 21.9564 16.4939L21.8081 11.256C21.7926 10.7063 21.33 10.2692 20.7802 10.2847ZM12.7217 16.1051L10.7791 18.1609C10.7111 18.2329 10.6229 18.2954 10.5338 18.3279C10.4449 18.3705 10.3555 18.393 10.2556 18.3958C10.1556 18.3987 10.0651 18.3812 9.97398 18.3438C9.89316 18.3161 9.8115 18.2583 9.74982 18.2001C9.73954 18.1904 9.72955 18.1906 9.72926 18.1806L7.67347 16.238C7.37537 15.9564 7.36179 15.4766 7.64347 15.1785C7.92514 14.8804 8.40495 14.8668 8.70304 15.1485L9.43342 15.8581L9.31484 11.6698C9.30324 11.2599 9.63348 10.9104 10.0433 10.8988C10.4531 10.8872 10.8026 11.2175 10.8142 11.6273L10.9328 15.8156L11.6322 15.0755C11.9138 14.7775 12.3936 14.7639 12.6917 15.0455C12.9898 15.3272 13.0034 15.807 12.7217 16.1051Z" fill="#5E457E"/>
<path d="M17.6722 8.99165C18.6221 8.97476 19.9415 8.93741 21.0711 8.90543C21.6408 8.8893 21.9218 8.21107 21.5106 7.82255C20.0301 6.41389 17.3773 3.87795 15.856 2.44043C15.4346 2.04219 14.7328 2.34217 14.7489 2.91195L14.8477 6.40055C14.889 7.85996 16.1628 9.03439 17.6722 8.99165Z" fill="#5E457E"/>
</svg>
