<svg width="25" height="25" viewBox="0 0 25 25" fill="none" xmlns="http://www.w3.org/2000/svg">
<path d="M20.7812 10.2867L17.8924 10.3685C15.5233 10.4355 13.5395 8.56094 13.4724 6.19189L13.3906 3.30305C13.375 2.75327 12.9125 2.31618 12.3627 2.33175L8.12441 2.45174C5.04564 2.53891 2.61324 4.60857 2.71427 8.17714L2.96502 17.0336C3.06605 20.6022 5.61165 22.5309 8.69042 22.4437L16.5473 22.2213C19.626 22.1341 22.0584 20.0645 21.9574 16.4959L21.8091 11.258C21.7935 10.7082 21.331 10.2711 20.7812 10.2867ZM12.7227 16.1071L10.7801 18.1629C10.7121 18.2348 10.6238 18.2974 10.5347 18.3299C10.4459 18.3724 10.3565 18.395 10.2565 18.3978C10.1566 18.4006 10.0661 18.3832 9.97496 18.3457C9.89414 18.318 9.81247 18.2603 9.7508 18.202C9.74052 18.1923 9.73052 18.1926 9.73024 18.1826L7.67444 16.24C7.37635 15.9583 7.36277 15.4785 7.64444 15.1804C7.92612 14.8823 8.40593 14.8687 8.70402 15.1504L9.43439 15.86L9.31582 11.6717C9.30421 11.2619 9.63445 10.9124 10.0443 10.9008C10.4541 10.8892 10.8036 11.2194 10.8152 11.6293L10.9338 15.8176L11.6331 15.0775C11.9148 14.7794 12.3946 14.7658 12.6927 15.0475C12.9908 15.3292 13.0044 15.809 12.7227 16.1071Z" fill="#F050AE"/>
<path d="M17.6717 8.99556C18.6216 8.97867 19.941 8.94131 21.0706 8.90933C21.6404 8.8932 21.9213 8.21498 21.5101 7.82646C20.0297 6.41779 17.3768 3.88185 15.8555 2.44433C15.4341 2.0461 14.7323 2.34608 14.7484 2.91585L14.8472 6.40445C14.8885 7.86387 16.1623 9.03829 17.6717 8.99556Z" fill="#F050AE"/>
</svg>
