<svg width="104" height="104" viewBox="0 0 104 104" fill="none" xmlns="http://www.w3.org/2000/svg">
<path d="M52.0002 8.66797C40.0402 8.66797 30.3335 18.3746 30.3335 30.3346C30.3335 42.2946 40.0402 52.0013 52.0002 52.0013C63.9602 52.0013 73.6668 42.2946 73.6668 30.3346C73.6668 18.3746 63.9602 8.66797 52.0002 8.66797ZM61.4035 28.2113L49.7035 39.9113C49.2702 40.3446 48.3602 40.778 47.7535 40.908L43.2902 41.5146C41.6435 41.7313 40.5168 40.6046 40.7768 39.0013L41.4268 34.538C41.5135 33.9313 41.9468 33.0213 42.4235 32.588L54.1235 20.888C56.1168 18.8946 58.5002 17.9413 61.4468 20.888C64.3502 23.878 63.3968 26.218 61.4035 28.2113Z" fill="#5E457E"/>
<path d="M51.9999 60.668C30.2899 60.668 12.6099 75.228 12.6099 93.168C12.6099 94.3813 13.5632 95.3346 14.7765 95.3346H89.2232C90.4365 95.3346 91.3899 94.3813 91.3899 93.168C91.3899 75.228 73.7099 60.668 51.9999 60.668Z" fill="#5E457E"/>
</svg>
