<svg width="48" height="48" viewBox="0 0 48 48" fill="none" xmlns="http://www.w3.org/2000/svg">
<g id="vuesax/bold/arrow-circle-right">
<g id="arrow-circle-right">
<path id="Vector" d="M43.5 24C43.5 13.2561 34.7439 4.5 24 4.5C13.2561 4.5 4.5 13.2561 4.5 24C4.5 34.7439 13.2561 43.5 24 43.5C34.7439 43.5 43.5 34.7439 43.5 24ZM25.1264 32.4736L18.0692 25.4164C17.2703 24.6405 17.2703 23.3595 18.0692 22.5836L25.1264 15.5264C25.9017 14.7512 27.1783 14.7512 27.9536 15.5264C28.7288 16.3017 28.7288 17.5783 27.9536 18.3536L22.3071 24L27.9536 29.6464C28.7288 30.4217 28.7288 31.6983 27.9536 32.4736C27.5548 32.8723 27.0455 33.06 26.54 33.06C26.0345 33.06 25.5252 32.8723 25.1264 32.4736Z" fill="#CBCBCB" stroke="#CBCBCB"/>
</g>
</g>
</svg>
