<svg width="8" height="7" viewBox="0 0 8 7" fill="none" xmlns="http://www.w3.org/2000/svg">
<path d="M2 2.8729V2.29725C2 1.34456 2.33333 0.570312 4 0.570312C5.66667 0.570312 6 1.34456 6 2.29725V2.8729" stroke="#FF4D38" stroke-width="0.5" stroke-linecap="round" stroke-linejoin="round"/>
<path d="M4.00033 5.32193C4.46056 5.32193 4.83366 4.99977 4.83366 4.60237C4.83366 4.20497 4.46056 3.88281 4.00033 3.88281C3.54009 3.88281 3.16699 4.20497 3.16699 4.60237C3.16699 4.99977 3.54009 5.32193 4.00033 5.32193Z" stroke="#FF4D38" stroke-width="0.5" stroke-linecap="round" stroke-linejoin="round"/>
<path d="M5.66699 6.33669H2.33366C1.00033 6.33669 0.666992 6.04887 0.666992 4.89758V4.32193C0.666992 3.17064 1.00033 2.88281 2.33366 2.88281H5.66699C7.00033 2.88281 7.33366 3.17064 7.33366 4.32193V4.89758C7.33366 6.04887 7.00033 6.33669 5.66699 6.33669Z" stroke="#FF4D38" stroke-width="0.5" stroke-linecap="round" stroke-linejoin="round"/>
</svg>
