<svg width="104" height="104" viewBox="0 0 104 104" fill="none" xmlns="http://www.w3.org/2000/svg">
<path d="M95.3346 52.0052C95.3346 28.1285 75.878 8.67188 52.0013 8.67188C28.1246 8.67188 8.66797 28.1285 8.66797 52.0052C8.66797 64.5719 14.0846 75.8819 22.6646 83.8119C22.6646 83.8552 22.6646 83.8552 22.6213 83.8985C23.0546 84.3319 23.5746 84.6785 24.008 85.0685C24.268 85.2852 24.4846 85.5019 24.7446 85.6752C25.5246 86.3252 26.3913 86.9319 27.2146 87.5385C27.518 87.7552 27.778 87.9285 28.0813 88.1452C28.9046 88.7085 29.7713 89.2285 30.6813 89.7052C30.9846 89.8785 31.3313 90.0952 31.6346 90.2685C32.5013 90.7452 33.4113 91.1785 34.3646 91.5685C34.7113 91.7419 35.058 91.9152 35.4046 92.0452C36.358 92.4352 37.3113 92.7819 38.2646 93.0852C38.6113 93.2152 38.958 93.3452 39.3046 93.4319C40.3446 93.7352 41.3846 93.9952 42.4246 94.2552C42.728 94.3419 43.0313 94.4285 43.378 94.4719C44.5913 94.7319 45.8046 94.9052 47.0613 95.0352C47.2346 95.0352 47.408 95.0785 47.5813 95.1219C49.0546 95.2519 50.528 95.3385 52.0013 95.3385C53.4746 95.3385 54.948 95.2519 56.378 95.1219C56.5513 95.1219 56.7246 95.0785 56.898 95.0352C58.1546 94.9052 59.368 94.7319 60.5813 94.4719C60.8846 94.4285 61.188 94.2985 61.5346 94.2552C62.5746 93.9952 63.658 93.7785 64.6546 93.4319C65.0013 93.3019 65.348 93.1719 65.6946 93.0852C66.648 92.7385 67.6446 92.4352 68.5546 92.0452C68.9013 91.9152 69.248 91.7419 69.5946 91.5685C70.5046 91.1785 71.4146 90.7452 72.3246 90.2685C72.6713 90.0952 72.9746 89.8785 73.278 89.7052C74.1446 89.1852 75.0113 88.7085 75.878 88.1452C76.1813 87.9719 76.4413 87.7552 76.7446 87.5385C77.6113 86.9319 78.4346 86.3252 79.2146 85.6752C79.4746 85.4585 79.6913 85.2419 79.9513 85.0685C80.428 84.6785 80.9046 84.2885 81.338 83.8985C81.338 83.8552 81.338 83.8552 81.2946 83.8119C89.918 75.8819 95.3346 64.5719 95.3346 52.0052ZM73.408 73.5419C61.6646 65.6552 42.4246 65.6552 30.5946 73.5419C28.688 74.7985 27.128 76.2719 25.828 77.8752C19.2413 71.2019 15.168 62.0585 15.168 52.0052C15.168 31.6819 31.678 15.1719 52.0013 15.1719C72.3246 15.1719 88.8346 31.6819 88.8346 52.0052C88.8346 62.0585 84.7613 71.2019 78.1746 77.8752C76.918 76.2719 75.3146 74.7985 73.408 73.5419Z" fill="#66A8FC"/>
<path d="M52 30.0312C43.03 30.0312 35.75 37.3113 35.75 46.2813C35.75 55.0779 42.64 62.2279 51.7833 62.4879C51.9133 62.4879 52.0867 62.4879 52.1733 62.4879C52.26 62.4879 52.39 62.4879 52.4767 62.4879C52.52 62.4879 52.5633 62.4879 52.5633 62.4879C61.3167 62.1846 68.2067 55.0779 68.25 46.2813C68.25 37.3113 60.97 30.0312 52 30.0312Z" fill="#66A8FC"/>
</svg>
